<?xml version="1.0" encoding="utf-8"?>
<!-- Generator: Adobe Illustrator 27.6.1, SVG Export Plug-In . SVG Version: 6.00 Build 0)  -->
<svg version="1.1" id="Layer_1" xmlns="http://www.w3.org/2000/svg" xmlns:xlink="http://www.w3.org/1999/xlink" x="0px" y="0px"
	 viewBox="0 0 64 64" style="enable-background:new 0 0 64 64;" xml:space="preserve">
<style type="text/css">
	.st0{clip-path:url(#SVGID_00000177461285895383782760000012939528934965833611_);}
	.st1{fill:#FFFFFF;}
</style>
<g>
	<defs>
		<rect id="SVGID_1_" x="0.7" width="62.7" height="64"/>
	</defs>
	<clipPath id="SVGID_00000013874100295761471340000018309948213515512488_">
		<use xlink:href="#SVGID_1_"  style="overflow:visible;"/>
	</clipPath>
	<g style="clip-path:url(#SVGID_00000013874100295761471340000018309948213515512488_);">
		<path class="st1" d="M0.7,0h62.7v74H0.7V0z"/>
		<path class="st1" d="M0.7,0h62.7v64H0.7V0z"/>
		<path d="M0.7,0h62.7v64H0.7V0z"/>
	</g>
</g>
<g>
	<g transform="translate(3.952214, 33.641333)">
		<g>
			<path class="st1" d="M25.4-13.7c0.7-6.5-3.4-10.2-9.1-10.2C13-23.9,9-22.6,6.9-20c-1.8,2.2-2.2,5.9-0.6,8.2
				c1.4,2.2,4,3.4,6.3,4.5C15.3-6,18-4.8,20.2-2.8c2.5,2.3,4,5.9,2.5,9.2c-1.3,2.7-4.1,3.8-6.8,3.8c-0.7,0-1.5-0.1-2.2-0.2
				C9.8,9.2,7.1,6.4,7.3,2.5c0-0.9,0.2-1.8,0.4-2.7c0.1-0.4-0.3-0.5-0.8-0.5c-0.8,0-1.9,0.4-2,0.9c-1.5,6.4,1.7,10.4,7.8,11.3
				c0.8,0.1,1.7,0.2,2.5,0.2c1.4,0,2.7-0.2,4-0.6c3.8-1.3,7.3-4.5,6.9-8.8c-0.3-3.2-2.6-5.9-5.2-7.6c-2.5-1.7-5.2-2.8-7.9-4.1
				c-2.1-1.1-4.3-2.6-4.8-5c-0.9-4.7,2.6-8,7-8c3.8,0,6.8,2.8,7.2,6.4c0.1,1,0.1,1.9,0,2.8c-0.1,0.4,0.3,0.5,0.8,0.5
				C24.2-12.7,25.3-13.1,25.4-13.7z"/>
		</g>
	</g>
</g>
<g>
	<g transform="translate(21.657928, 33.641333)">
		<g>
			<path class="st1" d="M37-16.8c-1.7-5.5-7.1-7.4-12.4-7.4c-4.7,0-9.5,1.5-13.7,3.1c-0.3,0.2-1.1,0.6-0.8,1
				c0.1,0.2,0.4,0.2,0.6,0.2c0.4,0,1-0.2,1.2-0.3c3.6-1.5,7.6-2.7,11.5-2.7c4.1,0,8.4,1.4,10.2,5.5c1.5,3.2,1.4,7.5-0.5,10.4
				c-2,3.1-5.4,4.2-8.8,4.2c-2.7,0-5.7-0.8-7.5-2.6c-0.1-3.9-0.3-7.9-0.7-11.9c0-0.1-0.2-0.2-0.5-0.2c-0.8,0-2.3,0.5-2.3,1
				c0.7,7.4,1.1,15,0.3,22.4c-0.4,3.4-0.9,7.1-2.8,10.1c-0.9,1.4-2.9,2.8-4.5,2.8c-2.9,0-4.6-1.4-6.3-2.8C-0.1,16.1-0.2,16-0.4,16
				c-0.9,0-2.7,0.6-2.2,1.1c2.2,1.8,5.1,2.9,7.9,2.9c2.3,0,4.6-0.7,6.5-2.3c2.7-2.2,3.7-5.8,4.3-9c0.6-3.7,0.9-7.5,0.9-11.3
				c2.3,1,4.7,1.3,7.1,1.3c3.9-0.1,8-1.4,10.7-4.3C37.5-8.4,38.1-13,37-16.8z"/>
		</g>
	</g>
</g>
</svg>
