<?xml version="1.0" encoding="utf-8"?>
<!-- Generator: Adobe Illustrator 27.6.1, SVG Export Plug-In . SVG Version: 6.00 Build 0)  -->
<svg version="1.1" id="Layer_1" xmlns="http://www.w3.org/2000/svg" xmlns:xlink="http://www.w3.org/1999/xlink" x="0px" y="0px"
	 viewBox="0 0 500 500" style="enable-background:new 0 0 500 500;" xml:space="preserve">
<style type="text/css">
	.st0{clip-path:url(#SVGID_00000110467300248112759220000003698871973818302090_);}
	.st1{clip-path:url(#SVGID_00000085945305267232673640000010562594669475245714_);}
	.st2{clip-path:url(#SVGID_00000099646272025940567030000011351524419793625767_);}
	.st3{clip-path:url(#SVGID_00000023271783550613248760000018176649840516861336_);}
	.st4{clip-path:url(#SVGID_00000070817838132156178560000000503177518205259431_);}
</style>
<g>
	<defs>
		<rect id="SVGID_1_" x="74.7" y="77.3" width="357.1" height="355.7"/>
	</defs>
	<clipPath id="SVGID_00000113352976542407750580000014188706717192433841_">
		<use xlink:href="#SVGID_1_"  style="overflow:visible;"/>
	</clipPath>
	<g style="clip-path:url(#SVGID_00000113352976542407750580000014188706717192433841_);">
		<g>
			<defs>
				
					<rect id="SVGID_00000092425680547329762090000004818865596997166003_" x="48.1" y="87.3" transform="matrix(0.7225 -0.6914 0.6914 0.7225 -94.4626 220.0934)" width="357.7" height="280.8"/>
			</defs>
			<clipPath id="SVGID_00000149371398120529143870000006196161848365133200_">
				<use xlink:href="#SVGID_00000092425680547329762090000004818865596997166003_"  style="overflow:visible;"/>
			</clipPath>
			<g style="clip-path:url(#SVGID_00000149371398120529143870000006196161848365133200_);">
				<g>
					<defs>
						
							<rect id="SVGID_00000160886925133007394900000006559198430068115105_" x="74.7" y="76.7" transform="matrix(0.7225 -0.6914 0.6914 0.7225 -106.2998 246.1936)" width="357.7" height="357.7"/>
					</defs>
					<clipPath id="SVGID_00000049939539365875213200000004589458745769753994_">
						<use xlink:href="#SVGID_00000160886925133007394900000006559198430068115105_"  style="overflow:visible;"/>
					</clipPath>
					<g style="clip-path:url(#SVGID_00000049939539365875213200000004589458745769753994_);">
						<path d="M335.1,409.7c-14.3,7.4-29.7,12.5-45.4,15.6c-12.8,2.5-25.9,3.8-38.9,3.7c-1.7,0-3.5-0.1-5.2-0.2
							c-1.7-0.1-3.5-0.1-5.2-0.3l-5.2-0.5l-2.6-0.2l-2.6-0.3l-5.2-0.7c-1.7-0.3-3.4-0.6-5.1-0.9c-3.4-0.5-6.8-1.4-10.2-2.1
							c-0.5-0.1-1-0.2-1.5-0.3c-0.5-0.1-1.1-0.3-1.6-0.4c-1.1-0.3-2.4-0.7-3.7-1c-2.6-0.7-5.5-1.7-8.6-2.7c-0.8-0.3-1.6-0.5-2.4-0.8
							c-0.8-0.3-1.6-0.6-2.5-1c-1.7-0.7-3.4-1.3-5.2-2c-3.5-1.6-7.3-3.1-11-5.2c-15.3-7.6-31.7-19.6-45.7-34
							c-13.8-14.6-25.1-31.5-32-47.1c-1.9-3.8-3.2-7.7-4.7-11.2c-0.6-1.8-1.2-3.6-1.8-5.3c-0.3-0.9-0.6-1.7-0.9-2.5
							c-0.3-0.8-0.5-1.6-0.7-2.4c-0.9-3.2-1.8-6.1-2.3-8.8c-0.3-1.3-0.6-2.6-0.8-3.7c-0.1-0.6-0.3-1.1-0.4-1.7
							c-0.1-0.5-0.2-1.1-0.3-1.5c-2.4-12.8-3.6-25.9-3.5-38.9c0.3-13.9,2.3-27.7,5.5-41.3c3.8-15.5,9.6-30.7,17.6-44.6
							c7.9-14.1,18-26.8,29.6-38.1c11.8-11.1,24.9-20.7,39.3-27.9c14.3-7.4,29.7-12.5,45.4-15.6c12.8-2.5,25.9-3.8,38.9-3.7
							c1.7,0,3.5,0.1,5.2,0.2c1.7,0.1,3.5,0.1,5.2,0.3l5.2,0.5l2.6,0.2l2.6,0.4l5.2,0.7c1.7,0.3,3.4,0.6,5.1,0.9
							c3.4,0.5,6.8,1.4,10.2,2.1c0.5,0.1,1,0.2,1.5,0.3c0.5,0.1,1.1,0.3,1.6,0.4c1.1,0.3,2.4,0.7,3.7,1c2.6,0.7,5.5,1.7,8.6,2.7
							c0.8,0.3,1.6,0.5,2.4,0.8c0.8,0.3,1.6,0.6,2.5,1c1.7,0.7,3.4,1.3,5.2,2c3.5,1.6,7.3,3.1,11,5.2c15.3,7.6,31.7,19.6,45.7,34
							c13.8,14.6,25.1,31.5,32,47.1c1.9,3.8,3.2,7.7,4.7,11.2c0.6,1.8,1.2,3.6,1.8,5.3c0.3,0.8,0.6,1.7,0.9,2.5
							c0.3,0.8,0.5,1.6,0.7,2.4c0.9,3.2,1.8,6.1,2.3,8.8c0.3,1.3,0.6,2.6,0.8,3.7c0.1,0.6,0.3,1.1,0.4,1.7c0.1,0.5,0.2,1.1,0.3,1.5
							c2.4,12.8,3.6,25.9,3.4,38.9c-0.3,13.9-2.3,27.7-5.5,41.3c-3.8,15.5-9.6,30.7-17.6,44.6c-7.9,14-18,26.8-29.6,38.1
							C362.7,392.9,349.5,402.5,335.1,409.7z M377.3,384.7L377.3,384.7c11.8-11.5,22.2-24.5,30.3-38.9c8.2-14.2,14.1-29.7,18-45.6
							l1.7-7.5c0,0,0.4-2.1,1-5.2c0.7-3.1,1.1-7.3,1.8-11.5c0.4-4.2,0.9-8.4,0.9-11.5c0.1-3.2,0.2-5.3,0.2-5.3s0-0.5,0-1.4
							c0-0.9,0-2.2,0-3.8c0.1-3.2-0.2-7.4-0.3-11.6c-0.2-2.1-0.4-4.2-0.5-6.2c-0.1-1-0.2-1.9-0.3-2.8c-0.1-0.9-0.2-1.7-0.4-2.5
							c-0.4-3.1-0.7-5.2-0.7-5.2s0-0.5-0.2-1.2c-0.1-0.7-0.3-1.6-0.5-2.6c-0.3-1.9-0.7-3.8-0.7-3.8c-0.1-0.5-0.2-1-0.3-1.6
							c-0.1-0.5-0.2-1.1-0.4-1.7c-0.3-1.2-0.6-2.5-0.9-3.8c-0.6-2.7-1.5-5.7-2.4-9c-0.2-0.8-0.5-1.7-0.7-2.5
							c-0.3-0.8-0.6-1.7-0.9-2.6c-0.6-1.7-1.2-3.5-1.8-5.4c-1.5-3.6-2.9-7.6-4.8-11.5c-7-16-18.5-33.4-32.7-48.3
							c-14.3-14.8-31.1-27.1-46.8-34.8c-3.8-2.1-7.7-3.7-11.3-5.3c-1.8-0.7-3.6-1.4-5.3-2.1c-0.9-0.3-1.7-0.7-2.5-1
							c-0.8-0.3-1.7-0.6-2.5-0.8c-3.2-1.1-6.2-2.1-8.8-2.8c-1.3-0.4-2.6-0.7-3.8-1c-0.6-0.2-1.1-0.3-1.7-0.5
							c-0.5-0.1-1.1-0.2-1.6-0.3c0,0-1.9-0.4-3.7-0.8c-0.9-0.2-1.9-0.4-2.6-0.6c-0.7-0.2-1.2-0.2-1.2-0.2s-2.1-0.4-5.2-1
							c-0.8-0.1-1.6-0.3-2.5-0.5c-0.9-0.1-1.8-0.2-2.8-0.4c-2-0.3-4-0.6-6.1-0.8c-4.2-0.3-8.4-0.8-11.5-0.8
							c-1.6-0.1-2.9-0.1-3.8-0.2c-0.9,0-1.4,0-1.4,0s-2.1,0-5.3,0c-3.2-0.1-7.4,0.2-11.6,0.4c-4.2,0.4-8.4,0.7-11.5,1.2
							c-3.1,0.5-5.2,0.7-5.2,0.7l-7.5,1.3c-16,3.1-31.8,8.4-46.4,16c-14.7,7.4-28.1,17.2-40.2,28.5l0,0l-0.1,0.1l-0.1,0.1l0,0
							c-11.8,11.5-22.2,24.5-30.3,38.9c-8.2,14.3-14.1,29.7-18,45.6l-1.7,7.5c0,0-0.4,2.1-1,5.2c-0.7,3.1-1.1,7.3-1.7,11.5
							c-0.4,4.2-0.9,8.4-0.9,11.5c-0.1,3.2-0.2,5.3-0.2,5.3s0,0.5,0,1.4c0,0.9,0,2.2,0,3.8c-0.1,3.2,0.2,7.4,0.3,11.6
							c0.1,2.1,0.4,4.2,0.5,6.2c0.1,1,0.2,1.9,0.3,2.8c0.1,0.9,0.2,1.7,0.3,2.5c0.4,3.1,0.7,5.2,0.7,5.2s0,0.5,0.2,1.2
							c0.1,0.7,0.3,1.6,0.5,2.6c0.3,1.9,0.7,3.8,0.7,3.8c0.1,0.5,0.2,1,0.3,1.6c0.1,0.5,0.2,1.1,0.4,1.7c0.3,1.2,0.6,2.4,0.9,3.8
							c0.6,2.7,1.5,5.7,2.4,9c0.2,0.8,0.5,1.7,0.7,2.5c0.3,0.8,0.6,1.7,0.9,2.6c0.6,1.7,1.2,3.5,1.8,5.4c1.5,3.6,2.9,7.6,4.8,11.5
							c7,16,18.6,33.4,32.7,48.3c14.3,14.8,31.1,27.1,46.8,34.8c3.8,2.1,7.7,3.6,11.3,5.3c1.8,0.7,3.6,1.4,5.3,2.1
							c0.9,0.3,1.7,0.7,2.5,1c0.8,0.3,1.7,0.6,2.5,0.8c3.2,1.1,6.2,2.1,8.9,2.8c1.3,0.4,2.6,0.7,3.8,1c0.6,0.2,1.2,0.3,1.7,0.5
							c0.6,0.1,1.1,0.2,1.6,0.3c0,0,1.9,0.4,3.7,0.8c0.9,0.2,1.9,0.4,2.6,0.6c0.7,0.2,1.2,0.2,1.2,0.2s2.1,0.4,5.2,1
							c0.8,0.1,1.6,0.3,2.5,0.5c0.9,0.1,1.8,0.3,2.8,0.4c2,0.3,4,0.6,6.1,0.8c4.2,0.3,8.4,0.8,11.5,0.8c1.6,0.1,2.9,0.1,3.8,0.2
							s1.4,0,1.4,0s2.1,0,5.3,0c3.2,0.1,7.4-0.2,11.6-0.4c4.2-0.4,8.4-0.7,11.5-1.2c3.1-0.5,5.2-0.8,5.2-0.8l7.5-1.3
							c16-3.1,31.8-8.4,46.4-16c14.7-7.4,28.2-17.2,40.2-28.5l0,0L377.3,384.7L377.3,384.7"/>
					</g>
				</g>
			</g>
		</g>
	</g>
</g>
<g>
	<g transform="translate(175.352655, 325.226606)">
		<g>
			<path d="M80.3,92.6c-0.1-0.1-0.4-0.3-0.7-0.5c-0.4-0.2-0.8-0.4-1.3-0.6c-0.5-0.2-1.1-0.4-1.7-0.5c-0.6-0.1-1.2-0.2-1.8-0.2
				c-1.1,0-1.9,0.2-2.4,0.7c-0.5,0.4-0.8,1-0.8,1.7c0,0.4,0.1,0.8,0.3,1.1c0.2,0.3,0.5,0.5,0.9,0.7c0.4,0.2,0.9,0.4,1.5,0.5
				c0.6,0.2,1.3,0.3,2,0.5c1,0.2,1.9,0.5,2.7,0.8c0.8,0.3,1.5,0.6,2.1,1.1c0.6,0.4,1,1,1.4,1.6c0.3,0.6,0.5,1.4,0.5,2.4
				c0,1.1-0.2,2-0.6,2.8c-0.4,0.8-0.9,1.4-1.6,1.9c-0.7,0.5-1.5,0.9-2.4,1.1c-0.9,0.2-1.9,0.4-2.9,0.4c-1.5,0-3.1-0.1-4.6-0.6
				c-1.5-0.4-2.9-1-4.1-1.9l1.6-3.5c0.2,0.2,0.5,0.4,1,0.6c0.5,0.3,1,0.5,1.6,0.8c0.6,0.3,1.3,0.5,2.1,0.7c0.7,0.2,1.5,0.2,2.3,0.2
				c2.2-0.1,3.3-0.8,3.2-2.2c0-0.4-0.1-0.8-0.4-1.1c-0.3-0.3-0.6-0.6-1.1-0.8c-0.5-0.2-1-0.4-1.7-0.6c-0.7-0.2-1.4-0.4-2.2-0.6
				c-1-0.2-1.9-0.5-2.6-0.8c-0.7-0.3-1.3-0.7-1.8-1.1c-0.5-0.4-0.9-0.9-1.1-1.5c-0.2-0.6-0.4-1.2-0.4-2c0-1,0.1-2,0.5-2.8
				c0.4-0.8,0.9-1.5,1.5-2.1c0.7-0.6,1.5-1,2.4-1.3c0.9-0.3,1.9-0.5,2.9-0.5c1.4,0,2.8,0.1,4,0.6c1.2,0.4,2.3,0.9,3.2,1.5L80.3,92.6
				z"/>
		</g>
	</g>
</g>
<g>
	<g transform="translate(198.174053, 323.656779)">
		<g>
			<path d="M76,107.3L72.6,87l3.9-0.7l3.4,20.2L76,107.3z"/>
		</g>
	</g>
</g>
<g>
	<g transform="translate(213.860096, 320.705843)">
		<g>
			<path d="M97,100.5l-4.4-12.9L90.9,99l-2,0.7l-8.3-7.9l4.4,12.9l-3.8,1.3l-6.6-19.4l4.1-1.4l9.5,9.1l2-13l4-1.4l6.6,19.4L97,100.5
				z"/>
		</g>
	</g>
</g>
<g>
	<g transform="translate(240.580973, 310.345818)">
		<g>
			<path d="M89.9,102.1L79.7,84.3l7.6-4.3c0.8-0.5,1.7-0.7,2.6-0.8c0.9-0.1,1.7,0.1,2.6,0.3c0.8,0.3,1.6,0.7,2.3,1.2
				c0.7,0.5,1.2,1.2,1.7,1.9c0.4,0.7,0.7,1.6,0.8,2.4c0.1,0.9,0.1,1.7-0.1,2.5c-0.2,0.8-0.5,1.6-1,2.3c-0.5,0.7-1.2,1.3-2,1.8
				l-4.2,2.4l3.4,6L89.9,102.1z M88.2,91.1l4-2.3c0.6-0.4,1-0.9,1.1-1.7c0.1-0.8,0-1.6-0.5-2.5c-0.3-0.5-0.6-0.8-0.9-1.1
				c-0.3-0.3-0.7-0.5-1-0.6c-0.3-0.1-0.7-0.2-1.1-0.1c-0.4,0-0.7,0.1-1,0.3l-3.9,2.2L88.2,91.1z"/>
		</g>
	</g>
</g>
<g>
	<g transform="translate(260.383343, 298.127561)">
		<g>
			<path d="M96.3,97.8L83.3,81.8l3.1-2.5l10.7,13.2l8.1-6.6l2.2,2.7L96.3,97.8z"/>
		</g>
	</g>
</g>
<g>
	<g transform="translate(277.331413, 283.40592)">
		<g>
			<path d="M87.7,77.3l10.8,2.7l-4-10.4l2.8-3.2l5.1,14.4l5.4,4.7l-2.6,3l-5.4-4.8l-14.9-3.2L87.7,77.3z"/>
		</g>
	</g>
</g>
<g>
	<g transform="translate(292.35099, 264.826995)">
	</g>
</g>
<g>
	<g transform="translate(300.16147, 252.267143)">
		<g>
			<path d="M108.7,82l-18.5-8.8l3.7-7.8c0.4-0.9,1-1.6,1.7-2.1c0.7-0.6,1.5-0.9,2.3-1.2c0.8-0.2,1.7-0.3,2.6-0.3
				c0.9,0.1,1.7,0.3,2.4,0.6c0.8,0.4,1.5,0.9,2.1,1.5c0.6,0.6,1.1,1.3,1.4,2.1c0.3,0.8,0.5,1.6,0.5,2.5c0,0.9-0.2,1.7-0.6,2.6
				l-2.1,4.4l6.2,3L108.7,82z M101.1,73.9l2-4.2c0.3-0.7,0.3-1.3,0-2c-0.3-0.7-1-1.3-1.9-1.7c-0.5-0.2-0.9-0.4-1.4-0.4
				c-0.4,0-0.8,0-1.2,0.1c-0.4,0.1-0.7,0.3-1,0.5c-0.3,0.2-0.5,0.5-0.6,0.8l-1.9,4L101.1,73.9z"/>
		</g>
	</g>
</g>
<g>
	<g transform="translate(309.526874, 230.85523)">
		<g>
			<path d="M110.5,65.5c0.2-0.9,0.3-1.7,0.1-2.5c-0.2-0.7-0.6-1.4-1-1.9c-0.5-0.6-1.1-1-1.8-1.4c-0.7-0.4-1.5-0.7-2.3-0.9l-10.1-2.7
				l1-3.8l10.1,2.7c1.3,0.4,2.6,0.9,3.7,1.5c1.1,0.6,2,1.4,2.7,2.4c0.7,0.9,1.2,2,1.4,3.3c0.2,1.2,0.1,2.6-0.3,4.1
				c-0.4,1.6-1.1,2.9-1.9,3.8c-0.8,0.9-1.8,1.6-2.9,2.1c-1.1,0.4-2.3,0.7-3.6,0.6c-1.3,0-2.6-0.2-3.8-0.6l-10.1-2.7l1.1-3.9
				l10.1,2.7c0.8,0.2,1.7,0.4,2.5,0.4c0.8,0.1,1.6,0,2.3-0.2c0.7-0.2,1.3-0.6,1.8-1.1C109.9,67.1,110.3,66.3,110.5,65.5z"/>
		</g>
	</g>
</g>
<g>
	<g transform="translate(315.419226, 205.421851)">
		<g>
			<path d="M97.4,49.4l-0.6,6.5l17,1.5l-0.4,3.9l-17-1.5L96,66.4l-3.5-0.3l1.5-17L97.4,49.4z"/>
		</g>
	</g>
</g>
<g>
	<g transform="translate(101.900467, 223.082618)">
		<g>
			<path d="M126.7-13.4c2.4-22.8-11.9-36.1-31.9-36.1c-11.7,0-25.6,4.4-33,13.9c-6.3,7.9-7.6,20.6-2.2,28.9C64.5,1,73.6,5.1,81.7,9
				c9.3,4.4,19,8.7,26.7,15.8c8.7,8.2,14.1,20.8,8.7,32.2c-4.7,9.6-14.4,13.6-23.9,13.6c-2.6,0-5.1-0.2-7.6-0.8
				c-13.7-2.8-23-12.8-22.3-26.5c0.1-3.1,0.6-6.3,1.4-9.3c0.3-1.3-1-1.7-2.7-1.7c-2.7,0-6.7,1.3-7.2,3.2
				C49.2,58.1,60.5,72.1,82,75.2c2.8,0.3,5.8,0.6,8.7,0.6c4.8,0,9.6-0.6,14-2.1c13.6-4.4,25.9-15.7,24.5-31
				c-1-11.3-9.2-20.9-18.2-26.9C102.3,10,92.5,6.2,83.3,1.4c-7.3-3.9-15-9-16.8-17.7c-3.2-16.5,9.1-28.1,24.7-28.1
				c13.3,0,23.8,10,25.5,22.4c0.3,3.4,0.3,6.7,0,9.9c-0.2,1.4,1.1,1.9,3,1.9C122.6-10.1,126.5-11.6,126.7-13.4z"/>
		</g>
	</g>
</g>
<g>
	<g transform="translate(164.344927, 223.082618)">
		<g>
			<path d="M167.6-24.4c-6-19.5-25.1-26.1-43.5-26.1c-16.5,0-33.5,5.1-48.4,11c-1,0.6-4,2.1-2.7,3.6c0.5,0.6,1.4,0.8,2.3,0.8
				c1.5,0,3.4-0.6,4.2-1c12.7-5.1,26.7-9.5,40.5-9.5c14.5,0,29.7,5,36,19.3c5.2,11.2,5,26.3-1.6,36.7c-6.9,10.8-18.9,14.9-31.1,14.9
				c-9.6,0-19.9-2.8-26.4-9.1c-0.2-13.9-1.1-27.8-2.5-41.8c0-0.5-0.8-0.7-1.8-0.7c-2.8,0-8.2,1.6-8.1,3.5c2.5,26.1,3.9,52.8,1,78.9
				c-1.3,12-3.1,25.2-10,35.4c-3.1,4.8-10.4,9.7-15.8,9.7c-10.4,0-16.1-4.9-22.1-9.8c-0.3-0.2-0.9-0.3-1.6-0.3
				c-3.3,0-9.5,2.3-7.7,3.8c7.9,6.4,17.9,10.1,27.8,10.1c8.1,0,16.2-2.5,22.8-8c9.5-7.7,13-20.3,15-31.7c2.2-13,3.1-26.3,3.1-39.7
				c8.1,3.6,16.4,4.4,25.2,4.4c13.7-0.3,28.3-4.9,37.7-15C169.3,4.9,171.5-11,167.6-24.4z"/>
		</g>
	</g>
</g>
<g>
	<defs>
		<rect id="SVGID_00000146489166065372826930000016326966942071449760_" x="332.7" y="281.9" width="17.6" height="17.6"/>
	</defs>
	<clipPath id="SVGID_00000054945481182799016950000010038796315150858397_">
		<use xlink:href="#SVGID_00000146489166065372826930000016326966942071449760_"  style="overflow:visible;"/>
	</clipPath>
	<g style="clip-path:url(#SVGID_00000054945481182799016950000010038796315150858397_);">
		<g>
			<defs>
				<path id="SVGID_00000058555633722108751450000002660435773663914650_" d="M341.5,281.9c-4.9,0-8.8,3.9-8.8,8.8
					c0,4.9,3.9,8.8,8.8,8.8c4.9,0,8.8-3.9,8.8-8.8C350.2,285.9,346.3,281.9,341.5,281.9"/>
			</defs>
			<clipPath id="SVGID_00000095329465437184076920000015167495872789124260_">
				<use xlink:href="#SVGID_00000058555633722108751450000002660435773663914650_"  style="overflow:visible;"/>
			</clipPath>
			<g style="clip-path:url(#SVGID_00000095329465437184076920000015167495872789124260_);">
				<path d="M332.7,281.9h17.6v17.6h-17.6V281.9z"/>
			</g>
		</g>
	</g>
</g>
</svg>
